<svg width="50" height="46" viewBox="0 0 50 46" fill="none" xmlns="http://www.w3.org/2000/svg">
<mask id="mask0_520_2085" style="mask-type:alpha" maskUnits="userSpaceOnUse" x="0" y="0" width="50" height="46">
<rect width="50" height="46" fill="#D9D9D9"/>
</mask>
<g mask="url(#mask0_520_2085)">
<path d="M22.9167 32.5835H27.0834V24.9168H35.4167V21.0835H27.0834V13.4168H22.9167V21.0835H14.5834V24.9168H22.9167V32.5835ZM25.0001 42.1668C22.1181 42.1668 19.4098 41.6637 16.8751 40.6575C14.3404 39.6512 12.1355 38.2856 10.2605 36.5606C8.3855 34.8356 6.90112 32.8071 5.80737 30.4752C4.71362 28.1432 4.16675 25.6516 4.16675 23.0002C4.16675 20.3488 4.71362 17.8571 5.80737 15.5252C6.90112 13.1932 8.3855 11.1647 10.2605 9.43975C12.1355 7.71475 14.3404 6.34912 16.8751 5.34287C19.4098 4.33662 22.1181 3.8335 25.0001 3.8335C27.882 3.8335 30.5904 4.33662 33.1251 5.34287C35.6598 6.34912 37.8647 7.71475 39.7397 9.43975C41.6147 11.1647 43.099 13.1932 44.1928 15.5252C45.2865 17.8571 45.8334 20.3488 45.8334 23.0002C45.8334 25.6516 45.2865 28.1432 44.1928 30.4752C43.099 32.8071 41.6147 34.8356 39.7397 36.5606C37.8647 38.2856 35.6598 39.6512 33.1251 40.6575C30.5904 41.6637 27.882 42.1668 25.0001 42.1668ZM25.0001 38.3335C29.6529 38.3335 33.5938 36.8481 36.823 33.8772C40.0522 30.9064 41.6668 27.2807 41.6668 23.0002C41.6668 18.7196 40.0522 15.0939 36.823 12.1231C33.5938 9.15225 29.6529 7.66683 25.0001 7.66683C20.3473 7.66683 16.4063 9.15225 13.1772 12.1231C9.948 15.0939 8.33342 18.7196 8.33342 23.0002C8.33342 27.2807 9.948 30.9064 13.1772 33.8772C16.4063 36.8481 20.3473 38.3335 25.0001 38.3335Z" fill="#593528"/>
</g>
</svg>
