<svg width="30" height="30" viewBox="0 0 30 30" fill="none" xmlns="http://www.w3.org/2000/svg">
<mask id="mask0_464_1551" style="mask-type:alpha" maskUnits="userSpaceOnUse" x="0" y="0" width="30" height="30">
<rect width="30" height="30" fill="#D9D9D9"/>
</mask>
<g mask="url(#mask0_464_1551)">
<path d="M22.1875 25.3125C20.875 25.3125 19.7656 24.8594 18.8594 23.9531C17.9531 23.0469 17.5 21.9375 17.5 20.625C17.5 19.3125 17.9531 18.2031 18.8594 17.2969C19.7656 16.3906 20.875 15.9375 22.1875 15.9375C23.5 15.9375 24.6094 16.3906 25.5156 17.2969C26.4219 18.2031 26.875 19.3125 26.875 20.625C26.875 21.9375 26.4219 23.0469 25.5156 23.9531C24.6094 24.8594 23.5 25.3125 22.1875 25.3125ZM22.1875 22.8125C22.7917 22.8125 23.3073 22.599 23.7344 22.1719C24.1615 21.7448 24.375 21.2292 24.375 20.625C24.375 20.0208 24.1615 19.5052 23.7344 19.0781C23.3073 18.651 22.7917 18.4375 22.1875 18.4375C21.5833 18.4375 21.0677 18.651 20.6406 19.0781C20.2135 19.5052 20 20.0208 20 20.625C20 21.2292 20.2135 21.7448 20.6406 22.1719C21.0677 22.599 21.5833 22.8125 22.1875 22.8125ZM5 21.875V19.375H15V21.875H5ZM7.8125 14.0625C6.5 14.0625 5.39062 13.6094 4.48437 12.7031C3.57812 11.7969 3.125 10.6875 3.125 9.375C3.125 8.0625 3.57812 6.95312 4.48437 6.04687C5.39062 5.14062 6.5 4.6875 7.8125 4.6875C9.125 4.6875 10.2344 5.14062 11.1406 6.04687C12.0469 6.95312 12.5 8.0625 12.5 9.375C12.5 10.6875 12.0469 11.7969 11.1406 12.7031C10.2344 13.6094 9.125 14.0625 7.8125 14.0625ZM7.8125 11.5625C8.41667 11.5625 8.93229 11.349 9.35938 10.9219C9.78646 10.4948 10 9.97917 10 9.375C10 8.77083 9.78646 8.25521 9.35938 7.82813C8.93229 7.40104 8.41667 7.1875 7.8125 7.1875C7.20833 7.1875 6.69271 7.40104 6.26563 7.82813C5.83854 8.25521 5.625 8.77083 5.625 9.375C5.625 9.97917 5.83854 10.4948 6.26563 10.9219C6.69271 11.349 7.20833 11.5625 7.8125 11.5625ZM15 10.625V8.125H25V10.625H15Z" fill="#1C1B1F"/>
</g>
</svg>
